<svg width="171" height="30" viewBox="0 0 171 30" fill="none" xmlns="http://www.w3.org/2000/svg">
<mask id="mask0_1_5" style="mask-type:luminance" maskUnits="userSpaceOnUse" x="0" y="0" width="171" height="30">
<path d="M170.798 0H0V30H170.798V0Z" fill="white"/>
</mask>
<g mask="url(#mask0_1_5)">
<path d="M0 15.2133L9.25743 20.6506V11.0393V0L0 15.2133Z" fill="url(#paint0_linear_1_5)"/>
<path d="M9.20168 0V11.0393V20.6506L18.4591 15.2133L9.20168 0Z" fill="url(#paint1_linear_1_5)"/>
<path d="M0 16.9708L9.25743 29.8775V22.3531L0 16.9708Z" fill="url(#paint2_linear_1_5)"/>
<path d="M9.25735 22.3531V29.8775L18.5148 16.9708L9.25735 22.3531Z" fill="url(#paint3_linear_1_5)"/>
<path d="M28.9413 25.925C28.7392 25.925 28.5676 25.885 28.4261 25.8045C28.2848 25.7246 28.2141 25.6242 28.2141 25.5039C28.2141 25.2434 28.4768 25.0529 29.0018 24.9326C29.7492 24.7322 30.2743 24.5017 30.5773 24.241C30.8801 23.9604 31.0319 23.4993 31.0319 22.8579V9.23593C31.0319 8.57433 30.8904 8.10323 30.6076 7.8226C30.345 7.52189 29.84 7.29135 29.0928 7.13097C28.5676 7.03074 28.3049 6.83027 28.3049 6.52955C28.3049 6.38924 28.3655 6.28899 28.4869 6.22887C28.6281 6.14867 28.81 6.10858 29.0322 6.10858C29.6381 6.10858 30.4661 6.12862 31.5165 6.16872C32.5669 6.2088 33.3445 6.22887 33.8493 6.22887C35.4652 6.22887 37.384 6.2088 39.6057 6.16872C40.2319 6.14867 40.7671 6.1186 41.2116 6.07852C41.6761 6.03841 41.9487 6.01836 42.0296 6.01836C42.4537 6.01836 42.686 6.16872 42.7264 6.46944L42.9384 7.8226C43.1203 8.86501 43.2112 9.62682 43.2112 10.1079C43.2112 10.2683 43.1706 10.3986 43.0898 10.4989C43.0092 10.5991 42.9082 10.6492 42.7869 10.6492C42.585 10.6492 42.4235 10.5089 42.3021 10.2283C42.1407 9.80724 41.9791 9.41634 41.8175 9.05551C41.6761 8.67461 41.5245 8.40397 41.3631 8.24362C40.7975 7.64216 40.0804 7.34148 39.2119 7.34148H36.3943C36.0106 7.34148 35.6671 7.45172 35.3643 7.67225C35.0815 7.89275 34.94 8.18344 34.94 8.54429V14.4381C34.94 14.8992 35.1724 15.1297 35.6368 15.1297H38.394C38.8988 15.1297 39.2624 14.9994 39.4847 14.7388C39.7271 14.4781 39.9492 14.0472 40.1511 13.4458C40.2724 13.0448 40.4641 12.8444 40.7268 12.8444C40.8277 12.8444 40.9186 12.9044 40.9994 13.0248C41.0802 13.125 41.1207 13.2653 41.1207 13.4458C41.0399 14.2476 40.9994 15.0194 40.9994 15.7612C40.9994 16.7836 41.0298 17.5955 41.0904 18.1969V18.3473C41.0904 18.7081 40.9893 18.8885 40.7873 18.8885C40.6461 18.8885 40.5047 18.8183 40.3632 18.678C40.242 18.5176 40.1511 18.3072 40.0906 18.0465C39.9291 17.4652 39.737 17.0442 39.5149 16.7836C39.2927 16.5029 38.9897 16.3626 38.6058 16.3626H35.7884C35.4853 16.3626 35.2631 16.4227 35.1217 16.543C35.0007 16.6432 34.94 16.8237 34.94 17.0842V22.7977C34.94 23.4392 35.0714 23.8902 35.3338 24.1509C35.6167 24.4114 36.0609 24.5416 36.6669 24.5416H39.1513C40.242 24.5416 41.06 24.3412 41.6053 23.9404C42.1508 23.5194 42.7264 22.7375 43.3322 21.5948C43.4737 21.3342 43.6555 21.2039 43.8775 21.2039C44.0796 21.224 44.1808 21.3944 44.1808 21.7152C44.1808 22.3567 43.8674 23.6096 43.2413 25.4739C43.1203 25.7546 42.9183 25.8948 42.6355 25.8948L39 25.8348C36.4145 25.7948 34.3847 25.7745 32.9101 25.7745C32.5264 25.7745 31.8903 25.7948 31.0013 25.8348C30.3348 25.8948 29.6482 25.925 28.9413 25.925Z" fill="#FFF9F9"/>
<path d="M51.0973 25.895C50.8953 25.895 50.7135 25.8548 50.5518 25.7745C50.4103 25.7145 50.3399 25.6242 50.3399 25.5039C50.3399 25.2033 50.6124 24.9928 51.1577 24.8725C51.9658 24.7121 52.5413 24.4917 52.8846 24.211C53.2281 23.9103 53.3997 23.4392 53.3997 22.7977V10.6192C53.3997 9.45642 53.3594 8.68463 53.2786 8.30371C53.1978 7.92286 53.0564 7.70234 52.8543 7.64218C52.5111 7.52192 51.9658 7.46177 51.2183 7.46177H50.2792C49.6934 7.46177 49.1279 7.60211 48.5825 7.88275C48.0372 8.16342 47.6129 8.52425 47.3099 8.96531C47.1282 9.266 46.8858 9.57676 46.5829 9.89748C46.3001 10.1981 46.0375 10.3486 45.7953 10.3486C45.5529 10.3486 45.4316 10.1882 45.4316 9.86744C45.4316 9.66696 45.4922 9.42635 45.6132 9.14575C45.9567 8.44403 46.2092 7.84267 46.3708 7.34148C46.5325 6.82027 46.6537 6.21886 46.7343 5.53727C46.8151 5.05615 47.0374 4.81557 47.401 4.81557C47.502 4.81557 47.6534 4.9559 47.8555 5.23656C48.0574 5.49717 48.2089 5.68763 48.3097 5.8079C48.4713 5.96827 48.7743 6.09858 49.2188 6.19882C49.6631 6.29904 50.0771 6.34917 50.4609 6.34917L61.6407 6.31911C62.5898 6.31911 63.3674 6.17875 63.9735 5.89811C64.1149 5.81792 64.3066 5.67759 64.549 5.47713C64.7106 5.3368 64.842 5.23656 64.9428 5.17642C65.0642 5.09623 65.1953 5.05615 65.3367 5.05615C65.5388 5.05615 65.6398 5.24658 65.6398 5.62748C65.6398 5.72771 65.6095 5.95825 65.5489 6.31911C65.5489 6.31911 65.4782 6.59975 65.3367 7.16106C65.1349 7.90279 65.0337 8.51428 65.0337 8.99536V9.50658C65.0337 9.80728 64.9834 10.0578 64.8822 10.2583C64.8016 10.4388 64.6804 10.529 64.5188 10.529C64.3572 10.529 64.2159 10.4388 64.0945 10.2583C63.9735 10.0779 63.8623 9.77724 63.7613 9.35622C63.5796 8.69469 63.2666 8.21351 62.8221 7.91282C62.3979 7.61213 61.7415 7.46177 60.8527 7.46177H58.7927C58.3684 7.46177 58.0553 7.54196 57.8535 7.70234C57.6716 7.84267 57.5404 8.14336 57.4596 8.60448C57.3789 9.04547 57.3383 9.76716 57.3383 10.7695V22.7677C57.3383 23.3889 57.51 23.8503 57.8535 24.1509C58.1967 24.4515 58.7723 24.6921 59.5804 24.8725C59.863 24.9328 60.065 25.0129 60.1863 25.1132C60.3277 25.1933 60.3984 25.3136 60.3984 25.4739C60.3984 25.5942 60.3277 25.6944 60.1863 25.7745C60.0449 25.8348 59.8733 25.8648 59.6713 25.8648C59.1865 25.8648 58.4391 25.8447 57.4292 25.8048C56.5001 25.7646 55.8236 25.7445 55.3994 25.7445C54.9954 25.7445 54.3087 25.7646 53.3391 25.8048C52.6121 25.8648 51.8646 25.895 51.0973 25.895Z" fill="#FFF9F9"/>
<path d="M67.0189 25.895C66.8371 25.895 66.6755 25.8548 66.5341 25.7745C66.3926 25.6944 66.3219 25.5942 66.3219 25.474C66.3219 25.3136 66.3826 25.1933 66.504 25.1132C66.625 25.0129 66.8169 24.9328 67.0795 24.8725C67.7864 24.7121 68.2612 24.5017 68.5034 24.241C68.7661 23.9604 68.8974 23.4894 68.8974 22.8277V9.20584C68.8974 8.52426 68.7862 8.05317 68.564 7.79255C68.3621 7.51191 67.8976 7.29139 67.1705 7.13101C66.6654 7.05082 66.4128 6.85035 66.4128 6.52959C66.4128 6.38928 66.4735 6.28904 66.5947 6.22891C66.7361 6.1487 66.9078 6.10862 67.1099 6.10862C67.6552 6.10862 68.3521 6.12866 69.2004 6.16876C70.0082 6.20884 70.584 6.22891 70.9272 6.22891C71.2908 6.22891 71.8969 6.20884 72.745 6.16876C73.6741 6.12866 74.4113 6.10862 74.9568 6.10862C75.3808 6.10862 75.5929 6.25897 75.5929 6.55968C75.5929 6.72005 75.5324 6.84033 75.4112 6.92051C75.3103 7.0007 75.1182 7.07086 74.8355 7.13101C74.0478 7.33149 73.5125 7.58207 73.2299 7.88277C72.9672 8.16343 72.836 8.61446 72.836 9.23597V14.8291C72.836 15.0696 72.9875 15.19 73.2903 15.19H82.3489C82.5714 15.19 82.6825 15.0495 82.6825 14.769V9.20584C82.6825 8.62447 82.5414 8.18347 82.258 7.88277C81.9959 7.56201 81.4806 7.31143 80.7131 7.13101C80.4305 7.07086 80.2285 7.0007 80.1073 6.92051C79.9861 6.84033 79.9254 6.72005 79.9254 6.55968C79.9254 6.25897 80.1477 6.10862 80.592 6.10862C81.117 6.10862 81.8645 6.12866 82.8343 6.16876C83.7228 6.20884 84.369 6.22891 84.7731 6.22891C85.0959 6.22891 85.6211 6.20884 86.3482 6.16876C87.1564 6.12866 87.843 6.10862 88.4086 6.10862C88.6107 6.10862 88.7723 6.1487 88.8932 6.22891C89.0343 6.28904 89.1057 6.38928 89.1057 6.52959C89.1057 6.83031 88.8527 7.03078 88.3479 7.13101C87.641 7.29139 87.1767 7.52192 86.9544 7.82264C86.7322 8.10327 86.621 8.56438 86.621 9.20584V22.8277C86.621 23.4894 86.7322 23.9604 86.9544 24.241C87.1972 24.5217 87.671 24.7324 88.3786 24.8725C88.6408 24.9328 88.8332 25.0129 88.954 25.1132C89.0749 25.1933 89.1357 25.3136 89.1357 25.474C89.1357 25.5942 89.0652 25.6944 88.924 25.7745C88.782 25.8548 88.6204 25.895 88.4387 25.895C87.7522 25.895 87.0754 25.8648 86.4091 25.8048C85.6009 25.7646 85.0051 25.7445 84.6213 25.7445C84.2577 25.7445 83.6319 25.7646 82.7434 25.8048C81.8143 25.8447 81.0869 25.8648 80.5616 25.8648C80.1376 25.8648 79.9254 25.7246 79.9254 25.444C79.9254 25.2836 79.976 25.1633 80.0769 25.0829C80.1982 25.003 80.3899 24.9328 80.6526 24.8725C81.3995 24.7121 81.9255 24.4816 82.228 24.1809C82.5308 23.8803 82.6825 23.4291 82.6825 22.8277V17.1144C82.6825 16.7937 82.5812 16.6332 82.3798 16.6332H73.1693C73.048 16.6332 72.9571 16.6733 72.8967 16.7536C72.8561 16.8137 72.836 16.9239 72.836 17.0844V22.7075C72.836 23.309 73.0077 23.78 73.3509 24.1209C73.6944 24.4617 74.2398 24.7121 74.9869 24.8725C75.2698 24.9328 75.4617 25.003 75.5627 25.0829C75.6838 25.1633 75.7445 25.2836 75.7445 25.444C75.7445 25.7246 75.5222 25.8648 75.078 25.8648C74.5528 25.8648 73.8257 25.8447 72.8967 25.8048C71.9674 25.7646 71.311 25.7445 70.9272 25.7445C70.5233 25.7445 69.8972 25.7646 69.0489 25.8048C68.3822 25.8648 67.7056 25.895 67.0189 25.895Z" fill="#FFF9F9"/>
<path d="M101.336 26.1957C99.559 26.1957 97.893 25.7846 96.3374 24.9626C94.8028 24.1209 93.5709 22.9481 92.6418 21.4446C91.7328 19.9409 91.2783 18.227 91.2783 16.3025C91.2783 14.4581 91.6824 12.7341 92.49 11.1304C93.2982 9.52656 94.4798 8.24364 96.0347 7.28135C97.5905 6.29905 99.4481 5.80788 101.609 5.80788C103.387 5.80788 105.043 6.22889 106.578 7.07085C108.134 7.89276 109.366 9.05554 110.274 10.559C111.204 12.0625 111.668 13.7766 111.668 15.7011C111.668 17.5453 111.264 19.2693 110.456 20.8731C109.648 22.4769 108.466 23.77 106.912 24.7523C105.356 25.7145 103.498 26.1957 101.336 26.1957ZM101.791 24.9926C104.053 24.9926 105.78 24.3013 106.972 22.9179C108.164 21.5145 108.759 19.6002 108.759 17.1745C108.759 15.27 108.466 13.556 107.881 12.0325C107.295 10.5089 106.426 9.30612 105.276 8.42406C104.144 7.52191 102.761 7.07085 101.125 7.07085C98.8824 7.07085 97.166 7.76247 95.9738 9.14574C94.7826 10.5089 94.1869 12.3934 94.1869 14.7989C94.1869 16.7034 94.4694 18.4274 95.0348 19.971C95.6208 21.5145 96.4795 22.7375 97.6098 23.6396C98.7615 24.5416 100.155 24.9926 101.791 24.9926Z" fill="#FFF9F9"/>
<path d="M114.355 25.8648C113.952 25.8648 113.75 25.7546 113.75 25.5339C113.75 25.3937 113.8 25.3035 113.901 25.2633C114.002 25.2033 114.184 25.1331 114.446 25.0529C114.87 24.9527 115.193 24.8323 115.416 24.692C115.638 24.5317 115.749 24.271 115.749 23.9103V17.4451C115.749 16.8035 115.679 16.3124 115.537 15.9716C115.395 15.6308 115.093 15.4003 114.628 15.2801C114.426 15.2198 114.325 15.0895 114.325 14.8891C114.325 14.6686 114.416 14.5482 114.598 14.5282C115.224 14.3679 115.749 14.1673 116.173 13.9268C116.618 13.6863 117.102 13.3756 117.627 12.9947C117.769 12.8945 117.88 12.8443 117.961 12.8443C118.062 12.8443 118.112 12.9145 118.112 13.0548L118.052 13.6863C118.031 13.8466 118.011 14.0471 117.991 14.2877C117.971 14.5081 117.961 14.7388 117.961 14.9793C117.961 15.1797 117.981 15.3001 118.022 15.3401C118.749 14.6585 119.506 14.1574 120.294 13.8367C121.081 13.4958 121.95 13.3254 122.899 13.3254C123.868 13.3254 124.677 13.7264 125.323 14.5282C125.989 15.3301 126.323 16.3224 126.323 17.5053V23.9103C126.323 24.271 126.424 24.5216 126.625 24.662C126.847 24.7823 127.181 24.9125 127.625 25.0529C127.868 25.1331 128.039 25.2134 128.14 25.2935C128.261 25.3535 128.322 25.4537 128.322 25.5942C128.322 25.7745 128.12 25.8648 127.716 25.8648C127.171 25.8648 126.736 25.8348 126.413 25.7745C126.009 25.7343 125.636 25.7144 125.293 25.7144C124.97 25.7144 124.586 25.7343 124.141 25.7745C123.818 25.8348 123.373 25.8648 122.808 25.8648C122.405 25.8648 122.202 25.7745 122.202 25.5942C122.202 25.4537 122.253 25.3535 122.353 25.2935C122.475 25.2134 122.657 25.1331 122.899 25.0529C123.343 24.9125 123.666 24.7823 123.868 24.662C124.091 24.5216 124.202 24.271 124.202 23.9103V17.5954C124.202 16.7334 123.95 16.0518 123.444 15.5507C122.96 15.0494 122.303 14.7889 121.475 14.7688C120.223 14.7688 119.102 15.1698 118.112 15.9716C117.951 16.1319 117.87 16.3626 117.87 16.6632V23.9103C117.87 24.271 117.981 24.5317 118.203 24.692C118.426 24.8323 118.749 24.9527 119.172 25.0529C119.415 25.1132 119.587 25.1831 119.688 25.2633C119.808 25.3235 119.869 25.4138 119.869 25.5339C119.869 25.7546 119.667 25.8648 119.263 25.8648C118.738 25.8648 118.304 25.8348 117.961 25.7745C117.517 25.7343 117.133 25.7144 116.809 25.7144C116.486 25.7144 116.102 25.7343 115.658 25.7745C115.335 25.8348 114.9 25.8648 114.355 25.8648Z" fill="#FFF9F9"/>
<path d="M130.21 25.8648C129.807 25.8648 129.605 25.7745 129.605 25.5942C129.605 25.454 129.654 25.3535 129.756 25.2935C129.877 25.2134 130.059 25.1331 130.302 25.0529C130.746 24.9127 131.07 24.7823 131.27 24.662C131.493 24.5216 131.604 24.271 131.604 23.9103V8.75475C131.604 7.49182 131.14 6.7601 130.21 6.55964C130.129 6.53957 130.069 6.49949 130.029 6.43935C129.988 6.35916 129.968 6.26896 129.968 6.16872C129.968 5.96824 130.039 5.84797 130.18 5.80786C130.968 5.62745 131.866 5.32674 132.876 4.90576L133.603 4.63514C133.685 4.59503 133.745 4.57499 133.785 4.57499C133.826 4.57499 133.855 4.60505 133.877 4.6652C133.917 4.70529 133.937 4.74538 133.937 4.78549C133.937 4.90576 133.897 5.28666 133.815 5.92815C133.756 6.56966 133.724 7.55195 133.724 8.8751V23.9103C133.724 24.271 133.826 24.5216 134.028 24.662C134.25 24.7823 134.583 24.9127 135.028 25.0529C135.27 25.1331 135.441 25.2134 135.542 25.2935C135.664 25.3535 135.724 25.454 135.724 25.5942C135.724 25.7745 135.523 25.8648 135.118 25.8648C134.594 25.8648 134.159 25.8348 133.815 25.7745C133.371 25.7346 132.988 25.7144 132.664 25.7144C132.342 25.7144 131.958 25.7346 131.513 25.7745C131.189 25.8348 130.756 25.8648 130.21 25.8648Z" fill="#FFF9F9"/>
<path d="M137.639 25.8648C137.236 25.8648 137.033 25.7546 137.033 25.5339C137.033 25.3937 137.085 25.2935 137.186 25.2333C137.307 25.1732 137.488 25.1132 137.732 25.0529C138.195 24.9326 138.528 24.8023 138.731 24.662C138.933 24.5017 139.034 24.2511 139.034 23.9103V17.385C139.034 16.0619 138.579 15.3301 137.67 15.1898C137.469 15.1698 137.367 15.0395 137.367 14.799C137.367 14.5785 137.458 14.4581 137.639 14.4381C138.872 14.1574 139.932 13.6563 140.821 12.9345C141.003 12.7941 141.144 12.724 141.246 12.724C141.367 12.724 141.427 12.7741 141.427 12.8744C141.427 13.0949 141.397 13.4758 141.337 14.0171C141.316 14.2576 141.276 14.7087 141.214 15.3703C141.175 16.0117 141.155 16.5329 141.155 16.9339V23.9103C141.155 24.2311 141.256 24.4714 141.458 24.6319C141.679 24.7922 142.013 24.9326 142.457 25.0529C142.7 25.1132 142.871 25.1732 142.973 25.2333C143.094 25.2935 143.154 25.3937 143.154 25.5339C143.154 25.7546 142.953 25.8648 142.548 25.8648C142.044 25.8648 141.619 25.8348 141.276 25.7745C140.832 25.7346 140.438 25.7144 140.094 25.7144C139.771 25.7144 139.387 25.7346 138.943 25.7745C138.62 25.8348 138.185 25.8648 137.639 25.8648ZM140.063 10.2583C139.64 10.2583 139.276 10.118 138.973 9.83727C138.69 9.5366 138.548 9.17574 138.548 8.75472C138.548 8.31375 138.69 7.95286 138.973 7.67222C139.276 7.37152 139.64 7.22115 140.063 7.22115C140.508 7.22115 140.871 7.37152 141.155 7.67222C141.458 7.95286 141.609 8.31375 141.609 8.75472C141.609 9.17574 141.458 9.5366 141.155 9.83727C140.871 10.118 140.508 10.2583 140.063 10.2583Z" fill="#FFF9F9"/>
<path d="M145.066 25.8648C144.662 25.8648 144.461 25.7546 144.461 25.5339C144.461 25.3937 144.512 25.3035 144.611 25.2633C144.713 25.2033 144.895 25.1331 145.157 25.0529C145.582 24.9527 145.905 24.8323 146.126 24.692C146.35 24.5317 146.461 24.271 146.461 23.9103V17.4451C146.461 16.8035 146.389 16.3124 146.247 15.9716C146.106 15.6308 145.804 15.4003 145.339 15.2801C145.137 15.2198 145.036 15.0895 145.036 14.8891C145.036 14.6686 145.127 14.5482 145.31 14.5282C145.935 14.3679 146.461 14.1673 146.884 13.9268C147.329 13.6863 147.813 13.3756 148.339 12.9947C148.48 12.8945 148.591 12.8443 148.671 12.8443C148.772 12.8443 148.824 12.9145 148.824 13.0548L148.763 13.6863C148.743 13.8466 148.722 14.0471 148.702 14.2877C148.682 14.5081 148.671 14.7388 148.671 14.9793C148.671 15.1797 148.693 15.3001 148.733 15.3401C149.46 14.6585 150.217 14.1574 151.005 13.8367C151.792 13.4958 152.661 13.3254 153.61 13.3254C154.579 13.3254 155.387 13.7264 156.034 14.5282C156.701 15.3301 157.034 16.3224 157.034 17.5053V23.9103C157.034 24.271 157.134 24.5216 157.336 24.662C157.559 24.7823 157.892 24.9125 158.337 25.0529C158.579 25.1331 158.75 25.2134 158.853 25.2935C158.972 25.3535 159.034 25.4537 159.034 25.5942C159.034 25.7745 158.831 25.8648 158.428 25.8648C157.882 25.8648 157.448 25.8348 157.124 25.7745C156.721 25.7343 156.348 25.7144 156.004 25.7144C155.68 25.7144 155.297 25.7343 154.853 25.7745C154.53 25.8348 154.085 25.8648 153.519 25.8648C153.115 25.8648 152.914 25.7745 152.914 25.5942C152.914 25.4537 152.965 25.3535 153.064 25.2935C153.187 25.2134 153.368 25.1331 153.61 25.0529C154.055 24.9125 154.378 24.7823 154.579 24.662C154.803 24.5216 154.913 24.271 154.913 23.9103V17.5954C154.913 16.7334 154.66 16.0518 154.156 15.5507C153.671 15.0494 153.015 14.7889 152.187 14.7688C150.934 14.7688 149.813 15.1698 148.824 15.9716C148.661 16.1319 148.581 16.3626 148.581 16.6632V23.9103C148.581 24.271 148.693 24.5317 148.915 24.692C149.137 24.8323 149.46 24.9527 149.884 25.0529C150.126 25.1132 150.297 25.1831 150.398 25.2633C150.519 25.3235 150.581 25.4138 150.581 25.5339C150.581 25.7546 150.378 25.8648 149.975 25.8648C149.449 25.8648 149.016 25.8348 148.671 25.7745C148.228 25.7343 147.843 25.7144 147.521 25.7144C147.198 25.7144 146.813 25.7343 146.37 25.7745C146.046 25.8348 145.612 25.8648 145.066 25.8648Z" fill="#FFF9F9"/>
<path d="M166.192 26.2257C165.102 26.2257 164.133 25.955 163.284 25.4138C162.456 24.8725 161.811 24.1108 161.346 23.1285C160.882 22.126 160.649 20.9734 160.649 19.6703C160.649 18.5478 160.911 17.4953 161.437 16.513C161.982 15.5307 162.7 14.7589 163.588 14.1976C164.477 13.6162 165.446 13.3255 166.496 13.3255C167.708 13.3255 168.698 13.6863 169.465 14.4081C170.253 15.1097 170.647 16.0118 170.647 17.1144C170.647 17.7359 170.343 18.0465 169.738 18.0465H163.345C163.063 18.0465 162.861 18.1268 162.739 18.2871C162.638 18.4274 162.589 18.7181 162.589 19.1592C162.589 20.1014 162.79 20.9734 163.194 21.7752C163.618 22.5771 164.183 23.2187 164.89 23.6997C165.618 24.1608 166.405 24.3915 167.254 24.3915C168.446 24.3915 169.434 23.9404 170.224 23.0384C170.343 22.8779 170.455 22.7977 170.556 22.7977C170.718 22.7977 170.798 22.8979 170.798 23.0984C170.798 23.4792 170.617 23.9002 170.253 24.3613C169.809 24.9427 169.223 25.4037 168.497 25.7445C167.769 26.0655 167.002 26.2257 166.192 26.2257ZM166.163 17.1144C167.113 17.1144 167.86 17.0643 168.405 16.964C168.567 16.9439 168.647 16.7235 168.647 16.3025C168.647 15.7211 168.384 15.2299 167.86 14.8291C167.355 14.4081 166.748 14.1976 166.042 14.1976C165.597 14.1976 165.134 14.3379 164.648 14.6184C164.183 14.8791 163.8 15.2099 163.497 15.6108C163.194 16.0118 163.042 16.4128 163.042 16.8137C163.042 17.0142 163.163 17.1144 163.407 17.1144H166.163Z" fill="#FFF9F9"/>
</g>
<defs>
<linearGradient id="paint0_linear_1_5" x1="2.15521" y1="17.3464" x2="14.3579" y2="5.02997" gradientUnits="userSpaceOnUse">
<stop stop-color="#F02F9F"/>
<stop offset="1" stop-color="#FFAD00"/>
</linearGradient>
<linearGradient id="paint1_linear_1_5" x1="13.8367" y1="20.6334" x2="13.8367" y2="-2.23136" gradientUnits="userSpaceOnUse">
<stop stop-color="#06FFFF"/>
<stop offset="0.0225704" stop-color="#07F6FD"/>
<stop offset="0.1481" stop-color="#0AC7F2"/>
<stop offset="0.278" stop-color="#0D9FE9"/>
<stop offset="0.4102" stop-color="#0F7EE2"/>
<stop offset="0.5457" stop-color="#1164DC"/>
<stop offset="0.6857" stop-color="#1252D8"/>
<stop offset="0.8331" stop-color="#1347D6"/>
<stop offset="1" stop-color="#1344D5"/>
</linearGradient>
<linearGradient id="paint2_linear_1_5" x1="-0.00554337" y1="23.4154" x2="9.25791" y2="23.4154" gradientUnits="userSpaceOnUse">
<stop stop-color="#06FFFF"/>
<stop offset="0.1076" stop-color="#07F5FD"/>
<stop offset="0.2899" stop-color="#09DAF7"/>
<stop offset="0.5246" stop-color="#0CAFED"/>
<stop offset="0.7995" stop-color="#1074E0"/>
<stop offset="1" stop-color="#1344D5"/>
</linearGradient>
<linearGradient id="paint3_linear_1_5" x1="9.25783" y1="23.4154" x2="18.5268" y2="23.4154" gradientUnits="userSpaceOnUse">
<stop stop-color="#F02F9F"/>
<stop offset="1" stop-color="#FFAD00"/>
</linearGradient>
</defs>
</svg>
