<svg width="184" height="50" viewBox="0 0 184 50" fill="none" xmlns="http://www.w3.org/2000/svg">
<path d="M142.266 48.0858H159.303C172.052 48.0858 182.389 37.7489 182.389 25C182.389 12.2511 172.052 1.91424 159.303 1.91424H25C12.2512 1.91424 1.91425 12.2511 1.91425 25C1.91425 37.7489 12.2512 48.0858 25 48.0858H26.6207" stroke="url(#paint0_linear_0_4)" stroke-width="3" stroke-miterlimit="10"/>
<path d="M76.123 48.0858H91.169" stroke="url(#paint1_linear_0_4)" stroke-width="3" stroke-miterlimit="10"/>
<path d="M30.4747 49.0939C30.4237 48.9535 30.3599 48.7621 30.2833 48.5452H29.0582L28.8668 49.0939H27.9097L28.9816 46.3119H30.3854L31.4701 49.0939H30.4747ZM30.0664 47.9454C29.9643 47.6774 29.8749 47.4094 29.7728 47.1414L29.6835 46.8862C29.5942 47.1159 29.4666 47.4732 29.2879 47.9454H30.0791H30.0664Z" fill="#404040"/>
<path d="M32.4911 48.3665C32.5676 48.4431 32.6825 48.4814 32.8356 48.4814C32.925 48.4814 32.9888 48.4686 33.0653 48.4303C33.1291 48.4048 33.193 48.3538 33.244 48.2899C33.461 48.3793 33.7162 48.4431 34.0097 48.5069C33.9204 48.6983 33.78 48.8515 33.5886 48.9663C33.3971 49.0812 33.1291 49.1322 32.8101 49.1322C32.389 49.1322 32.0699 49.0301 31.8657 48.8387C31.6616 48.6345 31.5595 48.3793 31.5595 48.0602C31.5595 47.7412 31.6616 47.4732 31.8657 47.269C32.0699 47.0648 32.389 46.9755 32.8101 46.9755C33.1291 46.9755 33.3844 47.0265 33.5886 47.1414C33.7928 47.2563 33.9331 47.4094 34.0097 47.6008C33.78 47.6519 33.5248 47.7284 33.244 47.8178C33.193 47.754 33.1291 47.7029 33.0653 47.6774C33.0015 47.6519 32.925 47.6263 32.8356 47.6263C32.6825 47.6263 32.5676 47.6646 32.4911 47.7412C32.4145 47.8178 32.3762 47.9199 32.3635 48.0602C32.3635 48.1878 32.4145 48.2899 32.4911 48.3793V48.3665Z" fill="#404040"/>
<path d="M35.1965 48.3665C35.2731 48.4431 35.388 48.4814 35.5411 48.4814C35.6304 48.4814 35.6942 48.4686 35.7708 48.4303C35.8346 48.4048 35.8984 48.3538 35.9495 48.2899C36.1664 48.3793 36.4216 48.4431 36.7152 48.5069C36.6258 48.6983 36.4855 48.8515 36.294 48.9663C36.1026 49.0812 35.8346 49.1322 35.5156 49.1322C35.0944 49.1322 34.7754 49.0301 34.5712 48.8387C34.367 48.6345 34.2649 48.3793 34.2649 48.0602C34.2649 47.7412 34.367 47.4732 34.5712 47.269C34.7754 47.0648 35.0944 46.9755 35.5156 46.9755C35.8346 46.9755 36.0898 47.0265 36.294 47.1414C36.4982 47.2563 36.6386 47.4094 36.7152 47.6008C36.4855 47.6519 36.2302 47.7284 35.9495 47.8178C35.8984 47.754 35.8346 47.7029 35.7708 47.6774C35.707 47.6519 35.6304 47.6263 35.5411 47.6263C35.388 47.6263 35.2731 47.6646 35.1965 47.7412C35.12 47.8178 35.0817 47.9199 35.0689 48.0602C35.0689 48.1878 35.12 48.2899 35.1965 48.3793V48.3665Z" fill="#404040"/>
<path d="M37.2767 48.8387C37.0725 48.6345 36.9704 48.3793 36.9704 48.0475C36.9704 47.7157 37.0725 47.4732 37.2767 47.269C37.4809 47.0648 37.7999 46.9755 38.2338 46.9755C38.5273 46.9755 38.7698 47.0265 38.974 47.1159C39.1782 47.218 39.3185 47.3456 39.4079 47.4987C39.4972 47.6519 39.5482 47.8433 39.5482 48.0475C39.5482 48.3793 39.4334 48.6473 39.2164 48.8387C38.9995 49.0429 38.6677 49.1322 38.221 49.1322C37.7744 49.1322 37.4681 49.0301 37.2639 48.8259L37.2767 48.8387ZM38.6294 48.3665C38.706 48.2899 38.757 48.1879 38.757 48.0475C38.757 47.9199 38.7187 47.8178 38.6294 47.7412C38.5528 47.6646 38.4252 47.6263 38.2593 47.6263C38.0934 47.6263 37.9786 47.6646 37.902 47.7412C37.8254 47.8178 37.7871 47.9199 37.7871 48.0475C37.7871 48.1751 37.8254 48.2899 37.902 48.3665C37.9786 48.4431 38.0934 48.4814 38.2593 48.4814C38.4252 48.4814 38.5528 48.4431 38.6294 48.3665Z" fill="#404040"/>
<path d="M42.1516 48.0475C42.1516 48.4176 42.1516 48.7749 42.1771 49.0939C42.0112 49.0939 41.8836 49.0939 41.7943 49.0939C41.705 49.0939 41.5773 49.0939 41.4114 49.0939L41.2966 48.5324C41.2328 48.7366 41.1434 48.8897 41.0158 48.9918C40.8882 49.0939 40.7478 49.145 40.5819 49.145C40.4288 49.145 40.3012 49.1067 40.1863 49.0429C40.0715 48.9791 39.9821 48.8897 39.9311 48.7749C39.88 48.66 39.8418 48.5324 39.8418 48.392V47.8433C39.8418 47.4987 39.8418 47.2307 39.829 47.0265H40.684C40.6713 47.3966 40.6585 47.7667 40.6585 48.1368C40.6585 48.2517 40.684 48.341 40.7351 48.4048C40.7861 48.4686 40.8627 48.5069 40.9393 48.5069C41.0158 48.5069 41.0924 48.4686 41.1434 48.4048C41.2073 48.341 41.2455 48.2389 41.2455 48.1113V48.022C41.2455 47.8178 41.2455 47.6902 41.2455 47.6136C41.2455 47.4349 41.2455 47.2435 41.2328 47.0265H42.1516C42.1389 47.3456 42.1261 47.6901 42.1261 48.073L42.1516 48.0475Z" fill="#404040"/>
<path d="M43.9765 49.0939C43.9893 48.7238 44.002 48.3793 44.002 48.0602C44.002 47.9454 43.9765 47.8561 43.9255 47.7922C43.8744 47.7284 43.7979 47.6901 43.7213 47.6901C43.6447 47.6901 43.5682 47.7284 43.5043 47.805C43.4405 47.8816 43.415 47.9837 43.4022 48.1113C43.4022 48.3027 43.4022 48.4431 43.4022 48.5197C43.4022 48.6983 43.4022 48.877 43.415 49.0939H42.4962C42.5217 48.7238 42.5217 48.3793 42.5217 48.0475C42.5217 47.7157 42.5217 47.3711 42.4962 47.001C42.6621 47.001 42.7897 47.001 42.879 47.001C42.9684 47.001 43.096 47.001 43.2619 47.001L43.3767 47.5625C43.4405 47.3583 43.5299 47.2052 43.6575 47.1031C43.7851 47.001 43.9255 46.95 44.0914 46.95C44.2445 46.95 44.3721 46.9883 44.487 47.0521C44.6018 47.1159 44.6912 47.2052 44.7422 47.3201C44.7933 47.4349 44.8316 47.5625 44.8316 47.7029V48.2517C44.8316 48.5962 44.8315 48.8642 44.8443 49.0684H43.9893L43.9765 49.0939Z" fill="#404040"/>
<path d="M46.8734 47.6901C46.6437 47.6774 46.4268 47.6646 46.2353 47.6519V48.0602C46.2353 48.2006 46.2608 48.3027 46.3247 48.3793C46.3885 48.4558 46.4906 48.4941 46.6437 48.4941C46.7075 48.4941 46.7586 48.4941 46.8096 48.4814C46.8096 48.5707 46.7968 48.6728 46.7968 48.7749C46.7968 48.8259 46.7968 48.928 46.7968 49.0939C46.682 49.1194 46.5927 49.1322 46.5161 49.1322C46.4395 49.1322 46.3374 49.1322 46.2226 49.1322C45.929 49.1322 45.7121 49.0556 45.5845 48.9153C45.4569 48.7749 45.3931 48.5707 45.3931 48.3155V47.6646C45.2782 47.6646 45.1506 47.6774 45.023 47.6901V47.0138C45.1506 47.0138 45.2654 46.9755 45.3548 46.8862C45.4441 46.7968 45.5079 46.6947 45.5207 46.5799H46.5671C46.4395 46.7585 46.2991 46.8989 46.1332 47.0138H46.8734V47.6901Z" fill="#404040"/>
<path d="M50.2808 49.0939C50.2297 48.9535 50.1659 48.7621 50.0893 48.5452H48.8642L48.6728 49.0939H47.7157L48.7877 46.3119H50.1914L51.2762 49.0939H50.2808ZM49.8724 47.9454C49.7703 47.6774 49.681 47.4094 49.5789 47.1414L49.4895 46.8862C49.4002 47.1159 49.2726 47.4732 49.0939 47.9454H49.8852H49.8724Z" fill="#404040"/>
<path d="M53.5222 47.1286C53.6626 47.2307 53.7647 47.3711 53.8412 47.537C53.9178 47.7029 53.9561 47.8816 53.9561 48.073C53.9561 48.2644 53.9178 48.4431 53.8412 48.609C53.7647 48.7749 53.6626 48.9025 53.535 48.9918C53.4074 49.0812 53.2542 49.1322 53.0883 49.1322C52.8969 49.1322 52.731 49.0939 52.5778 49.0046C52.4247 48.9153 52.3226 48.7876 52.2588 48.609L52.144 49.0939H51.4038C51.4165 48.609 51.4293 48.1113 51.4293 47.6008C51.4293 47.0903 51.4293 46.5926 51.4038 46.1077H52.2716V46.5799C52.246 46.9117 52.246 47.2052 52.246 47.4732C52.3099 47.2945 52.4247 47.1669 52.5651 47.0904C52.7055 47.0138 52.8714 46.9627 53.0756 46.9627C53.2415 46.9627 53.3946 47.0138 53.535 47.1159L53.5222 47.1286ZM52.9607 48.3793C53.0373 48.3027 53.0628 48.1878 53.0628 48.0602C53.0628 47.9454 53.0245 47.8433 52.9479 47.7795C52.8714 47.7029 52.7693 47.6646 52.6544 47.6646C52.5906 47.6646 52.5396 47.6774 52.4758 47.7029C52.4119 47.7284 52.3609 47.7795 52.3099 47.8305C52.2588 47.8943 52.246 47.9709 52.246 48.0602C52.246 48.2134 52.2843 48.3282 52.3481 48.4048C52.4247 48.4686 52.5268 48.5069 52.6672 48.5069C52.7948 48.5069 52.8841 48.4686 52.9607 48.3793Z" fill="#404040"/>
<path d="M54.8367 49.0429C54.6197 48.9791 54.4155 48.8897 54.2113 48.7749L54.6197 48.2261C54.7346 48.3155 54.8749 48.3793 55.0408 48.4176C55.2067 48.4686 55.3471 48.4941 55.4747 48.4941C55.5896 48.4941 55.6789 48.4814 55.7427 48.4431C55.8065 48.4176 55.8321 48.3665 55.8321 48.3155C55.8321 48.2772 55.8193 48.2389 55.781 48.2134C55.7555 48.1878 55.7044 48.1751 55.6534 48.1751C55.6151 48.1751 55.5768 48.1751 55.5385 48.1751C55.5003 48.1751 55.462 48.1751 55.4364 48.1751C55.3088 48.1878 55.1685 48.2006 55.0281 48.2006C54.7984 48.2006 54.6197 48.1623 54.4793 48.073C54.3389 47.9837 54.2624 47.8433 54.2624 47.6519C54.2624 47.4222 54.3645 47.2563 54.5814 47.1286C54.7984 47.001 55.1046 46.9372 55.513 46.9372C55.7172 46.9372 55.9214 46.9627 56.1256 47.0265C56.3298 47.0903 56.5084 47.1669 56.6743 47.2818L56.2404 47.7284C56.1001 47.6519 55.9597 47.6008 55.8321 47.5625C55.7044 47.537 55.5768 47.5115 55.4492 47.5115C55.3599 47.5115 55.2833 47.5242 55.2195 47.5625C55.1557 47.6008 55.1174 47.6391 55.1174 47.6901C55.1174 47.7284 55.1302 47.754 55.1557 47.7795C55.1812 47.805 55.2195 47.805 55.2578 47.805C55.2961 47.805 55.3599 47.805 55.4364 47.805C55.6279 47.805 55.7555 47.7795 55.8576 47.7795C56.1256 47.7795 56.3298 47.8305 56.4701 47.9199C56.6105 48.0092 56.6871 48.1496 56.6871 48.3282C56.6871 48.609 56.585 48.8004 56.368 48.928C56.1511 49.0556 55.8576 49.1194 55.4747 49.1194C55.2578 49.1194 55.0408 49.0939 54.8239 49.0301L54.8367 49.0429Z" fill="#404040"/>
<path d="M58.6269 47.6901C58.3971 47.6774 58.1802 47.6646 57.9888 47.6519V48.0602C57.9888 48.2006 58.0143 48.3027 58.0781 48.3793C58.1419 48.4558 58.244 48.4941 58.3971 48.4941C58.4609 48.4941 58.512 48.4941 58.563 48.4814C58.563 48.5707 58.5503 48.6728 58.5503 48.7749C58.5503 48.8259 58.5503 48.928 58.5503 49.0939C58.4354 49.1194 58.3461 49.1322 58.2695 49.1322C58.193 49.1322 58.0909 49.1322 57.976 49.1322C57.6825 49.1322 57.4655 49.0556 57.3379 48.9153C57.2103 48.7749 57.1465 48.5707 57.1465 48.3155V47.6646C57.0316 47.6646 56.904 47.6774 56.7764 47.6901V47.0138C56.904 47.0138 57.0189 46.9755 57.1082 46.8862C57.1976 46.7968 57.2614 46.6947 57.2741 46.5799H58.3206C58.193 46.7585 58.0526 46.8989 57.8867 47.0138H58.6269V47.6901Z" fill="#404040"/>
<path d="M59.7371 47.5753C59.8392 47.1924 60.1072 47.001 60.5411 47.001C60.6177 47.001 60.6815 47.001 60.758 47.0138L60.6304 47.8688C60.4518 47.805 60.2986 47.7667 60.1838 47.7667C60.0434 47.7667 59.9285 47.805 59.8647 47.8943C59.8009 47.9837 59.7626 48.0985 59.7626 48.2389V48.4814C59.7626 48.66 59.7626 48.8642 59.7754 49.0812H58.8566C58.8821 48.7111 58.8821 48.3665 58.8821 48.0347C58.8821 47.7029 58.8821 47.3583 58.8566 46.9883C59.0225 46.9883 59.1501 46.9883 59.2394 46.9883C59.3287 46.9883 59.4564 46.9883 59.6223 46.9883L59.7371 47.5498V47.5753Z" fill="#404040"/>
<path d="M63.2848 48.4558C63.2848 48.5452 63.2848 48.609 63.3104 48.6345C63.3359 48.6728 63.3742 48.6983 63.438 48.7111V49.0684C63.3359 49.0812 63.2721 49.0939 63.2083 49.0939C63.1445 49.0939 63.0679 49.0939 62.9658 49.0939C62.7489 49.0939 62.5957 49.0429 62.5319 48.9408C62.4553 48.8387 62.4298 48.7111 62.4298 48.5579V48.4558C62.3532 48.66 62.2512 48.8259 62.1108 48.928C61.9704 49.0301 61.7917 49.0812 61.5748 49.0812C61.3196 49.0812 61.1281 49.0301 61.0005 48.928C60.8729 48.8259 60.8091 48.6728 60.8091 48.4686C60.8091 48.3027 60.8601 48.1751 60.975 48.073C61.0898 47.9837 61.2557 47.9199 61.4855 47.8816C61.294 47.7412 61.1026 47.6263 60.8984 47.5242C61.0516 47.3328 61.2302 47.1797 61.4217 47.0776C61.6131 46.9755 61.8555 46.9245 62.1363 46.9245C62.5319 46.9245 62.8254 47.0138 63.0169 47.1797C63.2083 47.3456 63.2976 47.6136 63.2976 47.9581V48.4176L63.2848 48.4558ZM61.8555 47.7029C61.7535 47.7412 61.6641 47.805 61.5875 47.8943C61.7407 47.8816 61.9321 47.8688 62.1618 47.8688C62.2512 47.8688 62.3277 47.8688 62.366 47.8305C62.4043 47.805 62.4171 47.7795 62.4171 47.7412C62.4171 47.7157 62.3915 47.6901 62.366 47.6646C62.3277 47.6391 62.2767 47.6263 62.2001 47.6263C62.0725 47.6263 61.9576 47.6519 61.8555 47.6901V47.7029ZM62.1873 48.4048C62.3022 48.3538 62.3788 48.2772 62.4298 48.1878V48.0858C62.4298 48.0858 62.3022 48.1368 62.2256 48.1623C62.1491 48.1879 62.0597 48.2006 61.9576 48.2134L61.8173 48.2389C61.6769 48.2644 61.6003 48.3155 61.6003 48.3793C61.6003 48.4558 61.6641 48.4941 61.8045 48.4941C61.9449 48.4941 62.0725 48.4686 62.1873 48.4176V48.4048Z" fill="#404040"/>
<path d="M64.5738 48.3665C64.6503 48.4431 64.7652 48.4814 64.9183 48.4814C65.0077 48.4814 65.0715 48.4686 65.148 48.4303C65.2118 48.4048 65.2757 48.3538 65.3267 48.2899C65.5436 48.3793 65.7989 48.4431 66.0924 48.5069C66.0031 48.6983 65.8627 48.8515 65.6713 48.9663C65.4798 49.0812 65.2118 49.1322 64.8928 49.1322C64.4717 49.1322 64.1526 49.0301 63.9484 48.8387C63.7443 48.6345 63.6422 48.3793 63.6422 48.0602C63.6422 47.7412 63.7443 47.4732 63.9484 47.269C64.1526 47.0648 64.4717 46.9755 64.8928 46.9755C65.2118 46.9755 65.4671 47.0265 65.6713 47.1414C65.8754 47.2563 66.0158 47.4094 66.0924 47.6008C65.8627 47.6519 65.6075 47.7284 65.3267 47.8178C65.2757 47.754 65.2118 47.7029 65.148 47.6774C65.0842 47.6519 65.0077 47.6263 64.9183 47.6263C64.7652 47.6263 64.6503 47.6646 64.5738 47.7412C64.4972 47.8178 64.4589 47.9199 64.4461 48.0602C64.4461 48.1878 64.4972 48.2899 64.5738 48.3793V48.3665Z" fill="#404040"/>
<path d="M68.1087 47.6901C67.879 47.6774 67.6621 47.6646 67.4707 47.6519V48.0602C67.4707 48.2006 67.4962 48.3027 67.56 48.3793C67.6238 48.4558 67.7259 48.4941 67.879 48.4941C67.9428 48.4941 67.9939 48.4941 68.0449 48.4814C68.0449 48.5707 68.0322 48.6728 68.0322 48.7749C68.0322 48.8259 68.0322 48.928 68.0322 49.0939C67.9173 49.1194 67.828 49.1322 67.7514 49.1322C67.6748 49.1322 67.5727 49.1322 67.4579 49.1322C67.1644 49.1322 66.9474 49.0556 66.8198 48.9153C66.6922 48.7749 66.6284 48.5707 66.6284 48.3155V47.6646C66.5135 47.6646 66.3859 47.6774 66.2583 47.6901V47.0138C66.3859 47.0138 66.5008 46.9755 66.5901 46.8862C66.6794 46.7968 66.7432 46.6947 66.756 46.5799H67.8025C67.6748 46.7585 67.5345 46.8989 67.3686 47.0138H68.1087V47.6901Z" fill="#404040"/>
<path d="M68.4916 46.6565C68.415 46.5799 68.3767 46.4778 68.3767 46.3502C68.3767 46.2226 68.415 46.1205 68.4916 46.0439C68.5681 45.9673 68.6958 45.9163 68.8489 45.9163C69.002 45.9163 69.1169 45.9546 69.2062 46.0439C69.2828 46.1205 69.3338 46.2353 69.3338 46.3502C69.3338 46.465 69.2956 46.5799 69.219 46.6565C69.1424 46.733 69.0148 46.7713 68.8617 46.7713C68.7085 46.7713 68.5809 46.733 68.5043 46.6565H68.4916ZM68.4022 49.0939C68.415 48.6856 68.4278 48.341 68.4278 48.073C68.4278 47.754 68.4278 47.3966 68.4022 47.001H69.3211C69.2956 47.3839 69.2956 47.7412 69.2956 48.073C69.2956 48.3537 69.2956 48.6983 69.3211 49.0939H68.415H68.4022Z" fill="#404040"/>
<path d="M69.9464 48.8387C69.7422 48.6345 69.6401 48.3793 69.6401 48.0475C69.6401 47.7157 69.7422 47.4732 69.9464 47.269C70.1506 47.0648 70.4696 46.9755 70.9035 46.9755C71.197 46.9755 71.4395 47.0265 71.6437 47.1159C71.8479 47.218 71.9883 47.3456 72.0776 47.4987C72.1669 47.6519 72.218 47.8433 72.218 48.0475C72.218 48.3793 72.1031 48.6473 71.8862 48.8387C71.6692 49.0429 71.3374 49.1322 70.8908 49.1322C70.4441 49.1322 70.1378 49.0301 69.9336 48.8259L69.9464 48.8387ZM71.2991 48.3665C71.3757 48.2899 71.4267 48.1879 71.4267 48.0475C71.4267 47.9199 71.3885 47.8178 71.2991 47.7412C71.2226 47.6646 71.0949 47.6263 70.929 47.6263C70.7631 47.6263 70.6483 47.6646 70.5717 47.7412C70.4951 47.8178 70.4569 47.9199 70.4569 48.0475C70.4569 48.1751 70.4951 48.2899 70.5717 48.3665C70.6483 48.4431 70.7631 48.4814 70.929 48.4814C71.0949 48.4814 71.2226 48.4431 71.2991 48.3665Z" fill="#404040"/>
<path d="M73.9791 49.0939C73.9918 48.7238 74.0046 48.3793 74.0046 48.0602C74.0046 47.9454 73.9791 47.8561 73.928 47.7922C73.877 47.7284 73.8004 47.6901 73.7238 47.6901C73.6473 47.6901 73.5707 47.7284 73.5069 47.805C73.4431 47.8816 73.4176 47.9837 73.4048 48.1113C73.4048 48.3027 73.4048 48.4431 73.4048 48.5197C73.4048 48.6983 73.4048 48.877 73.4176 49.0939H72.4987C72.5243 48.7238 72.5243 48.3793 72.5243 48.0475C72.5243 47.7157 72.5243 47.3711 72.4987 47.001C72.6646 47.001 72.7922 47.001 72.8816 47.001C72.9709 47.001 73.0985 47.001 73.2644 47.001L73.3793 47.5625C73.4431 47.3583 73.5324 47.2052 73.66 47.1031C73.7877 47.001 73.928 46.95 74.0939 46.95C74.2471 46.95 74.3747 46.9883 74.4895 47.0521C74.6044 47.1159 74.6937 47.2052 74.7448 47.3201C74.7958 47.4349 74.8341 47.5625 74.8341 47.7029V48.2517C74.8341 48.5962 74.8341 48.8642 74.8469 49.0684H73.9918L73.9791 49.0939Z" fill="#404040"/>
<path d="M95.7376 47.1159C95.342 47.1031 94.9464 47.0904 94.5636 47.0904V49.0939H93.6064V47.0904C93.2236 47.0904 92.8407 47.0904 92.4451 47.1159V46.3119H95.7376V47.1159Z" fill="#404040"/>
<path d="M95.7376 48.8387C95.5334 48.6345 95.4313 48.3793 95.4313 48.0475C95.4313 47.7157 95.5334 47.4732 95.7376 47.269C95.9418 47.0648 96.2608 46.9755 96.6947 46.9755C96.9883 46.9755 97.2307 47.0265 97.4349 47.1159C97.6391 47.218 97.7795 47.3456 97.8688 47.4987C97.9581 47.6519 98.0092 47.8433 98.0092 48.0475C98.0092 48.3793 97.8943 48.6473 97.6774 48.8387C97.4604 49.0429 97.1286 49.1322 96.682 49.1322C96.2353 49.1322 95.929 49.0301 95.7249 48.8259L95.7376 48.8387ZM97.0904 48.3665C97.1669 48.2899 97.218 48.1879 97.218 48.0475C97.218 47.9199 97.1797 47.8178 97.0904 47.7412C97.0138 47.6646 96.8862 47.6263 96.7203 47.6263C96.5544 47.6263 96.4395 47.6646 96.3629 47.7412C96.2864 47.8178 96.2481 47.9199 96.2481 48.0475C96.2481 48.1751 96.2864 48.2899 96.3629 48.3665C96.4395 48.4431 96.5544 48.4814 96.7203 48.4814C96.8862 48.4814 97.0138 48.4431 97.0904 48.3665Z" fill="#404040"/>
<path d="M100.983 47.001L100.038 47.8688C100.357 48.3282 100.664 48.7366 100.944 49.0939H99.9362L99.7448 48.7749C99.6172 48.5579 99.5278 48.4303 99.4895 48.3665L99.1705 48.66V49.0939H98.2899C98.3155 48.609 98.3155 48.1113 98.3155 47.6263C98.3155 47.1414 98.3155 46.6182 98.2899 46.1205H99.1705V47.7412C99.413 47.486 99.6554 47.2435 99.8724 47.001H100.995H100.983Z" fill="#404040"/>
<path d="M102.859 48.1368H101.608C101.633 48.2517 101.685 48.341 101.761 48.4048C101.838 48.4814 101.953 48.5069 102.106 48.5069C102.208 48.5069 102.31 48.4814 102.412 48.4431C102.501 48.4048 102.578 48.341 102.642 48.2644C102.808 48.3538 103.037 48.4431 103.318 48.5324C103.241 48.7111 103.101 48.8515 102.884 48.9535C102.68 49.0556 102.399 49.1067 102.067 49.1067C101.633 49.1067 101.314 49.0046 101.11 48.8004C100.906 48.5962 100.791 48.341 100.791 48.0092C100.791 47.6774 100.893 47.4349 101.098 47.2307C101.302 47.0265 101.621 46.9372 102.067 46.9372C102.323 46.9372 102.552 46.9755 102.744 47.0648C102.935 47.1542 103.076 47.269 103.178 47.4222C103.28 47.5753 103.331 47.754 103.331 47.9581C103.331 48.022 103.331 48.073 103.331 48.1113H102.859V48.1368ZM101.812 47.6136C101.736 47.6646 101.672 47.7284 101.646 47.8178H102.552C102.527 47.7412 102.476 47.6646 102.399 47.6263C102.335 47.5753 102.246 47.5498 102.131 47.5498C102.004 47.5498 101.901 47.5753 101.812 47.6263V47.6136Z" fill="#404040"/>
<path d="M105.105 49.0939C105.117 48.7238 105.13 48.3793 105.13 48.0602C105.13 47.9454 105.105 47.8561 105.054 47.7922C105.003 47.7284 104.926 47.6901 104.849 47.6901C104.773 47.6901 104.696 47.7284 104.632 47.805C104.569 47.8816 104.543 47.9837 104.53 48.1113C104.53 48.3027 104.53 48.4431 104.53 48.5197C104.53 48.6983 104.53 48.877 104.543 49.0939H103.624C103.65 48.7238 103.65 48.3793 103.65 48.0475C103.65 47.7157 103.65 47.3711 103.624 47.001C103.79 47.001 103.918 47.001 104.007 47.001C104.096 47.001 104.224 47.001 104.39 47.001L104.505 47.5625C104.569 47.3583 104.658 47.2052 104.786 47.1031C104.913 47.001 105.054 46.95 105.219 46.95C105.373 46.95 105.5 46.9883 105.615 47.0521C105.73 47.1159 105.819 47.2052 105.87 47.3201C105.921 47.4349 105.96 47.5625 105.96 47.7029V48.2517C105.96 48.5962 105.96 48.8642 105.972 49.0684H105.117L105.105 49.0939Z" fill="#404040"/>
<path d="M110.145 48.2644C110.145 48.4431 110.107 48.5835 110.031 48.7111C109.954 48.8259 109.814 48.928 109.609 48.9918C109.405 49.0556 109.125 49.0939 108.754 49.0939H107.032C107.057 48.5962 107.057 48.1368 107.057 47.7029C107.057 47.269 107.057 46.8096 107.032 46.3119H107.938H108.754C109.074 46.3119 109.316 46.3374 109.507 46.3885C109.686 46.4395 109.814 46.5161 109.89 46.6182C109.967 46.7203 110.005 46.8479 110.005 47.001C110.005 47.1542 109.954 47.2945 109.839 47.4222C109.737 47.5498 109.546 47.6391 109.278 47.7157C109.865 47.7157 110.145 47.9071 110.145 48.2772V48.2644ZM107.925 47.0138V47.3711H108.665C108.818 47.3711 108.933 47.3583 108.997 47.3328C109.061 47.3073 109.086 47.2563 109.086 47.1797C109.086 47.1159 109.048 47.0776 108.984 47.0521C108.92 47.0265 108.806 47.0138 108.652 47.0138H107.912H107.925ZM108.665 48.392C108.793 48.392 108.895 48.392 108.971 48.3793C109.035 48.3793 109.086 48.3538 109.125 48.3155C109.15 48.2899 109.176 48.2517 109.176 48.2006C109.176 48.1368 109.137 48.0858 109.074 48.0602C108.997 48.0347 108.869 48.022 108.678 48.022H107.938V48.4048H108.678L108.665 48.392Z" fill="#404040"/>
<path d="M110.733 48.8387C110.528 48.6345 110.426 48.3793 110.426 48.0475C110.426 47.7157 110.528 47.4732 110.733 47.269C110.937 47.0648 111.256 46.9755 111.69 46.9755C111.983 46.9755 112.226 47.0265 112.43 47.1159C112.634 47.218 112.774 47.3456 112.864 47.4987C112.953 47.6519 113.004 47.8433 113.004 48.0475C113.004 48.3793 112.889 48.6473 112.672 48.8387C112.455 49.0429 112.124 49.1322 111.677 49.1322C111.23 49.1322 110.924 49.0301 110.72 48.8259L110.733 48.8387ZM112.085 48.3665C112.162 48.2899 112.213 48.1879 112.213 48.0475C112.213 47.9199 112.175 47.8178 112.085 47.7412C112.009 47.6646 111.881 47.6263 111.715 47.6263C111.549 47.6263 111.434 47.6646 111.358 47.7412C111.281 47.8178 111.243 47.9199 111.243 48.0475C111.243 48.1751 111.281 48.2899 111.358 48.3665C111.434 48.4431 111.549 48.4814 111.715 48.4814C111.881 48.4814 112.009 48.4431 112.085 48.3665Z" fill="#404040"/>
<path d="M115.607 48.0475C115.607 48.4176 115.607 48.7749 115.633 49.0939C115.467 49.0939 115.339 49.0939 115.25 49.0939C115.161 49.0939 115.033 49.0939 114.867 49.0939L114.752 48.5324C114.689 48.7366 114.599 48.8897 114.472 48.9918C114.344 49.0939 114.204 49.145 114.038 49.145C113.885 49.145 113.757 49.1067 113.642 49.0429C113.527 48.9791 113.438 48.8897 113.387 48.7749C113.336 48.66 113.298 48.5324 113.298 48.392V47.8433C113.298 47.4987 113.298 47.2307 113.285 47.0265H114.14C114.127 47.3966 114.114 47.7667 114.114 48.1368C114.114 48.2517 114.14 48.341 114.191 48.4048C114.242 48.4686 114.319 48.5069 114.395 48.5069C114.472 48.5069 114.548 48.4686 114.599 48.4048C114.663 48.341 114.701 48.2389 114.701 48.1113V48.022C114.701 47.8178 114.701 47.6902 114.701 47.6136C114.701 47.4349 114.701 47.2435 114.689 47.0265H115.607C115.595 47.3456 115.582 47.6901 115.582 48.073L115.607 48.0475Z" fill="#404040"/>
<path d="M117.432 49.0939C117.445 48.7238 117.458 48.3793 117.458 48.0602C117.458 47.9454 117.432 47.8561 117.381 47.7922C117.33 47.7284 117.254 47.6901 117.177 47.6901C117.101 47.6901 117.024 47.7284 116.96 47.805C116.896 47.8816 116.871 47.9837 116.858 48.1113C116.858 48.3027 116.858 48.4431 116.858 48.5197C116.858 48.6983 116.858 48.877 116.871 49.0939H115.952C115.978 48.7238 115.978 48.3793 115.978 48.0475C115.978 47.7157 115.978 47.3711 115.952 47.001C116.118 47.001 116.246 47.001 116.335 47.001C116.424 47.001 116.552 47.001 116.718 47.001L116.833 47.5625C116.896 47.3583 116.986 47.2052 117.113 47.1031C117.241 47.001 117.381 46.95 117.547 46.95C117.7 46.95 117.828 46.9883 117.943 47.0521C118.058 47.1159 118.147 47.2052 118.198 47.3201C118.249 47.4349 118.287 47.5625 118.287 47.7029V48.2517C118.287 48.5962 118.287 48.8642 118.3 49.0684H117.445L117.432 49.0939Z" fill="#404040"/>
<path d="M121.082 47.6136C121.082 48.124 121.082 48.6217 121.108 49.1067H120.24V48.6473C120.176 48.8132 120.074 48.9408 119.934 49.0301C119.793 49.1067 119.627 49.145 119.436 49.145C119.27 49.145 119.117 49.0939 118.989 49.0046C118.862 48.9153 118.76 48.7876 118.683 48.6217C118.606 48.4558 118.568 48.2772 118.568 48.0858C118.568 47.8943 118.606 47.7157 118.683 47.5498C118.76 47.3839 118.862 47.2435 119.002 47.1414C119.13 47.0393 119.283 46.9883 119.461 46.9883C119.666 46.9883 119.832 47.0265 119.972 47.1159C120.112 47.1924 120.214 47.3328 120.291 47.4987C120.291 47.3583 120.291 47.1159 120.278 46.7968C120.278 46.4906 120.265 46.2608 120.265 46.1332H121.133C121.12 46.6054 121.108 47.1031 121.108 47.6263L121.082 47.6136ZM120.138 48.392C120.214 48.3282 120.253 48.2134 120.253 48.0602C120.253 47.9199 120.214 47.8305 120.138 47.7667C120.061 47.7029 119.959 47.6774 119.844 47.6774C119.729 47.6774 119.627 47.7157 119.551 47.7922C119.474 47.8688 119.436 47.9581 119.436 48.073C119.436 48.2006 119.474 48.3155 119.538 48.392C119.615 48.4686 119.704 48.5197 119.832 48.5197C119.959 48.5197 120.061 48.4814 120.138 48.4176V48.392Z" fill="#404040"/>
<path d="M124.592 49.0939C124.541 48.9535 124.477 48.7621 124.4 48.5452H123.175L122.984 49.0939H122.027L123.099 46.3119H124.502L125.587 49.0939H124.592ZM124.183 47.9454C124.081 47.6774 123.992 47.4094 123.89 47.1414L123.8 46.8862C123.711 47.1159 123.583 47.4732 123.405 47.9454H124.196H124.183Z" fill="#404040"/>
<path d="M126.608 48.3665C126.685 48.4431 126.799 48.4814 126.953 48.4814C127.042 48.4814 127.106 48.4686 127.182 48.4303C127.246 48.4048 127.31 48.3538 127.361 48.2899C127.578 48.3793 127.833 48.4431 128.127 48.5069C128.037 48.6983 127.897 48.8515 127.705 48.9663C127.514 49.0812 127.246 49.1322 126.927 49.1322C126.506 49.1322 126.187 49.0301 125.983 48.8387C125.778 48.6345 125.676 48.3793 125.676 48.0602C125.676 47.7412 125.778 47.4732 125.983 47.269C126.187 47.0648 126.506 46.9755 126.927 46.9755C127.246 46.9755 127.501 47.0265 127.705 47.1414C127.91 47.2563 128.05 47.4094 128.127 47.6008C127.897 47.6519 127.642 47.7284 127.361 47.8178C127.31 47.754 127.246 47.7029 127.182 47.6774C127.118 47.6519 127.042 47.6263 126.953 47.6263C126.799 47.6263 126.685 47.6646 126.608 47.7412C126.531 47.8178 126.493 47.9199 126.48 48.0602C126.48 48.1878 126.531 48.2899 126.608 48.3793V48.3665Z" fill="#404040"/>
<path d="M129.313 48.3665C129.39 48.4431 129.505 48.4814 129.658 48.4814C129.747 48.4814 129.811 48.4686 129.888 48.4303C129.952 48.4048 130.015 48.3538 130.066 48.2899C130.283 48.3793 130.539 48.4431 130.832 48.5069C130.743 48.6983 130.602 48.8515 130.411 48.9663C130.22 49.0812 129.952 49.1322 129.632 49.1322C129.211 49.1322 128.892 49.0301 128.688 48.8387C128.484 48.6345 128.382 48.3793 128.382 48.0602C128.382 47.7412 128.484 47.4732 128.688 47.269C128.892 47.0648 129.211 46.9755 129.632 46.9755C129.952 46.9755 130.207 47.0265 130.411 47.1414C130.615 47.2563 130.755 47.4094 130.832 47.6008C130.602 47.6519 130.347 47.7284 130.066 47.8178C130.015 47.754 129.952 47.7029 129.888 47.6774C129.824 47.6519 129.747 47.6263 129.658 47.6263C129.505 47.6263 129.39 47.6646 129.313 47.7412C129.237 47.8178 129.199 47.9199 129.186 48.0602C129.186 48.1878 129.237 48.2899 129.313 48.3793V48.3665Z" fill="#404040"/>
<path d="M131.394 48.8387C131.189 48.6345 131.087 48.3793 131.087 48.0475C131.087 47.7157 131.189 47.4732 131.394 47.269C131.598 47.0648 131.917 46.9755 132.351 46.9755C132.644 46.9755 132.887 47.0265 133.091 47.1159C133.295 47.218 133.435 47.3456 133.525 47.4987C133.614 47.6519 133.665 47.8433 133.665 48.0475C133.665 48.3793 133.55 48.6473 133.333 48.8387C133.116 49.0429 132.785 49.1322 132.338 49.1322C131.891 49.1322 131.585 49.0301 131.381 48.8259L131.394 48.8387ZM132.746 48.3665C132.823 48.2899 132.874 48.1879 132.874 48.0475C132.874 47.9199 132.836 47.8178 132.746 47.7412C132.67 47.6646 132.542 47.6263 132.376 47.6263C132.21 47.6263 132.095 47.6646 132.019 47.7412C131.942 47.8178 131.904 47.9199 131.904 48.0475C131.904 48.1751 131.942 48.2899 132.019 48.3665C132.095 48.4431 132.21 48.4814 132.376 48.4814C132.542 48.4814 132.67 48.4431 132.746 48.3665Z" fill="#404040"/>
<path d="M136.269 48.0475C136.269 48.4176 136.269 48.7749 136.294 49.0939C136.128 49.0939 136.001 49.0939 135.911 49.0939C135.822 49.0939 135.694 49.0939 135.528 49.0939L135.413 48.5324C135.35 48.7366 135.26 48.8897 135.133 48.9918C135.005 49.0939 134.865 49.145 134.699 49.145C134.546 49.145 134.418 49.1067 134.303 49.0429C134.188 48.9791 134.099 48.8897 134.048 48.7749C133.997 48.66 133.959 48.5324 133.959 48.392V47.8433C133.959 47.4987 133.959 47.2307 133.946 47.0265H134.801C134.788 47.3966 134.775 47.7667 134.775 48.1368C134.775 48.2517 134.801 48.341 134.852 48.4048C134.903 48.4686 134.98 48.5069 135.056 48.5069C135.133 48.5069 135.209 48.4686 135.26 48.4048C135.324 48.341 135.362 48.2389 135.362 48.1113V48.022C135.362 47.8178 135.362 47.6902 135.362 47.6136C135.362 47.4349 135.362 47.2435 135.35 47.0265H136.269C136.256 47.3456 136.243 47.6901 136.243 48.073L136.269 48.0475Z" fill="#404040"/>
<path d="M138.093 49.0939C138.106 48.7238 138.119 48.3793 138.119 48.0602C138.119 47.9454 138.093 47.8561 138.042 47.7922C137.991 47.7284 137.915 47.6901 137.838 47.6901C137.762 47.6901 137.685 47.7284 137.621 47.805C137.557 47.8816 137.532 47.9837 137.519 48.1113C137.519 48.3027 137.519 48.4431 137.519 48.5197C137.519 48.6983 137.519 48.877 137.532 49.0939H136.613C136.639 48.7238 136.639 48.3793 136.639 48.0475C136.639 47.7157 136.639 47.3711 136.613 47.001C136.779 47.001 136.907 47.001 136.996 47.001C137.085 47.001 137.213 47.001 137.379 47.001L137.494 47.5625C137.557 47.3583 137.647 47.2052 137.774 47.1031C137.902 47.001 138.042 46.95 138.208 46.95C138.361 46.95 138.489 46.9883 138.604 47.0521C138.719 47.1159 138.808 47.2052 138.859 47.3201C138.91 47.4349 138.948 47.5625 138.948 47.7029V48.2517C138.948 48.5962 138.948 48.8642 138.961 49.0684H138.106L138.093 49.0939Z" fill="#404040"/>
<path d="M140.99 47.6901C140.761 47.6774 140.544 47.6646 140.352 47.6519V48.0602C140.352 48.2006 140.378 48.3027 140.442 48.3793C140.505 48.4558 140.607 48.4941 140.761 48.4941C140.824 48.4941 140.875 48.4941 140.926 48.4814C140.926 48.5707 140.914 48.6728 140.914 48.7749C140.914 48.8259 140.914 48.928 140.914 49.0939C140.799 49.1194 140.71 49.1322 140.633 49.1322C140.556 49.1322 140.454 49.1322 140.339 49.1322C140.046 49.1322 139.829 49.0556 139.701 48.9153C139.574 48.7749 139.51 48.5707 139.51 48.3155V47.6646C139.395 47.6646 139.267 47.6774 139.14 47.6901V47.0138C139.267 47.0138 139.382 46.9755 139.472 46.8862C139.561 46.7968 139.625 46.6947 139.638 46.5799H140.684C140.556 46.7585 140.416 46.8989 140.25 47.0138H140.99V47.6901Z" fill="#404040"/>
<path d="M152.221 11.5748H138.617L131.738 29.39C131.215 26.5186 128.458 25.0638 123.418 25.0638C125.957 24.3492 127.744 23.4048 128.803 22.2307C129.849 21.0567 130.373 19.7295 130.373 18.2236C130.373 16.7177 130.003 15.5181 129.288 14.561C128.56 13.6039 127.31 12.8637 125.549 12.366C123.788 11.8555 121.376 11.6131 118.326 11.6131H110.452L102.425 11.5748H70.7121L73.6728 19.2573C76.4548 19.1807 79.1986 19.1297 81.904 19.1169V38.4125H91.1434V19.1169C94.6529 19.1424 98.2772 19.219 101.991 19.3338C102.029 21.2736 102.055 23.1751 102.055 25C102.055 29.1603 101.953 33.6396 101.761 38.4252H137.557L139.408 33.1419H151.2C151.991 35.2603 152.616 37.0214 153.088 38.4252H162.66L152.233 11.5748H152.221ZM110.439 18.3384H117.534C119.015 18.3384 120.061 18.4533 120.699 18.6958C121.337 18.9382 121.644 19.3338 121.644 19.8954C121.644 20.61 121.337 21.1077 120.738 21.3757C120.138 21.6437 119.066 21.7841 117.534 21.7841H110.439V18.3512V18.3384ZM110.439 27.9096H117.534C119.359 27.9096 120.623 28.05 121.325 28.3308C122.027 28.6115 122.384 29.071 122.384 29.7218C122.384 30.2195 122.231 30.6023 121.937 30.8831C121.644 31.1639 121.159 31.368 120.482 31.4701C119.806 31.5722 118.823 31.636 117.547 31.636H110.452V27.8969L110.439 27.9096ZM141.501 27.3609C143.173 22.8305 144.449 19.4359 145.304 17.1899L146.197 19.5891C147.18 22.1797 148.15 24.7703 149.081 27.3481H141.501V27.3609Z" fill="#404040"/>
<path d="M70.8142 11.5748H57.2103L51.4293 26.5569L45.61 11.5748H32.0061L21.6565 38.4252H30.9342L32.7846 33.1419H44.5763C45.3675 35.2603 45.9929 37.0214 46.465 38.4252H56.1383L57.9888 33.1419H69.7805C70.5717 35.2603 71.197 37.0214 71.6692 38.4252H81.2404L70.8142 11.5748ZM34.8903 27.3609C36.562 22.8305 37.8382 19.4359 38.6932 17.1899L39.5865 19.5891C40.5692 22.1797 41.5391 24.7703 42.4707 27.3481H34.8903V27.3609ZM60.0944 27.3609C61.7662 22.8305 63.0424 19.4359 63.8974 17.1899L64.7907 19.5891C65.7734 22.1797 66.7432 24.7703 67.6748 27.3481H60.0944V27.3609Z" fill="#868686"/>
<defs>
<linearGradient id="paint0_linear_0_4" x1="3.82539e-06" y1="25" x2="184.303" y2="25" gradientUnits="userSpaceOnUse">
<stop stop-color="#00FF6E"/>
<stop offset="0.25" stop-color="#8A88FF"/>
<stop offset="0.5" stop-color="#FFA5DE"/>
<stop offset="0.75" stop-color="#8A88FF"/>
<stop offset="1" stop-color="#00FF6E"/>
</linearGradient>
<linearGradient id="paint1_linear_0_4" x1="-nan" y1="-nan" x2="-nan" y2="-nan" gradientUnits="userSpaceOnUse">
<stop stop-color="#00B8CD"/>
<stop offset="1" stop-color="#8A88FF"/>
</linearGradient>
</defs>
</svg>
